<?xml version="1.0" encoding="utf-8"?>
<svg version="1.1" xmlns="http://www.w3.org/2000/svg" xmlns:xlink="http://www.w3.org/1999/xlink" x="0px" y="0px"
	 viewBox="0 0 300 300" style="enable-background:new 0 0 300 300;" xml:space="preserve">
<style type="text/css">
	.st0{fill:#B2DFDB;}
	.st1{fill:#FFFFFF;}
	.st2{opacity:0.5;}
</style>
<g>
	<path class="st0" d="M116.8,234.7c-12.6,0-24.1-4.1-34.2-12.1c-0.1-0.1-0.3-0.2-0.4-0.2c-0.3-0.1-32.6-6.3-55.8-38.2
		c-0.1-0.1-0.1-0.2-0.2-0.2c-0.3-0.2-26.9-18.7-25-36.8c1-9,8.8-16.5,23.3-22.4c0.3-0.1,0.5-0.4,0.6-0.7c0.1-0.3,0-0.6-0.2-0.9
		C24.6,123,5.8,97.8,11.7,78.7c2.5-8.1,9.2-14,19.8-17.6c2.7,0.8,22.7,6.5,50.2,14.8c0.1,0,0.2,0,0.3,0h0.1c0,0,1.5-0.1,3.9-0.1
		c8.6,0,30.5,1.7,48.8,17.7c0.3,0.3,7.4,6,20.1,6c9.1,0,18.7-3,28.6-8.9c0.1-0.1,0.3-0.2,0.3-0.3c0.1-0.2,9.6-15.1,30.8-15.1
		c14.9,0,32.1,7.2,50.9,21.3c0.4,0.2,31.2,21.1,33.3,47.4c1,12-4.2,23.5-15.4,34c-0.8,0.1-3.2,0.4-7.8,0.4c-9,0-25.7-1.1-53.9-6.4
		c-0.1,0-0.1,0-0.2,0c0,0,0,0-0.1,0c-1.1,0.1-27,1.7-34.7,16.3c-3.5,6.8-2.5,15.2,3.1,25c-1.7-0.2-4.5-0.5-7.8-0.5
		c-11.3,0-27.1,2.8-38.4,15.8C142.3,229.3,131.2,234.7,116.8,234.7z"/>
	<path class="st1" d="M31.5,62.1c3.6,1,23.3,6.7,49.9,14.7c0.2,0.1,0.4,0.1,0.6,0.1c0.1,0,0.1,0,0.2,0c0,0,1.4-0.1,3.8-0.1
		c8.5,0,30.1,1.7,48.2,17.5c0.3,0.3,7.7,6.3,20.7,6.3c9.3,0,19.1-3,29.1-9.1c0.3-0.2,0.5-0.4,0.7-0.7c0.4-0.6,9.3-14.6,30-14.6
		c14.7,0,31.6,7.1,50.3,21.1c0,0,0.1,0,0.1,0.1c0.3,0.2,30.8,20.8,32.9,46.6c0.9,11.6-4,22.7-14.8,33c-1,0.1-3.3,0.4-7.4,0.4
		c-9,0-25.6-1.1-53.7-6.4c-0.1,0-0.2,0-0.4,0h-0.1c-1.1,0.1-27.6,1.7-35.5,16.8c-3.5,6.7-2.8,14.8,2.2,24.3c-1.6-0.2-3.7-0.3-6-0.3
		c-11.4,0-27.4,2.8-39,16c-1.9,1-12.6,6-26.3,6c-12.4,0-23.7-4-33.5-11.9c-0.3-0.2-0.6-0.3-0.9-0.4c-0.3-0.1-32.2-6.2-55.2-37.8
		c-0.1-0.2-0.3-0.3-0.5-0.5c-0.3-0.2-26.5-18.3-24.6-35.9c0.9-8.6,8.6-15.8,22.7-21.5c0.6-0.2,1-0.7,1.2-1.3c0.2-0.6,0-1.2-0.3-1.7
		c-0.2-0.2-18.8-25.1-13-43.7C15,71.3,21.4,65.6,31.5,62.1 M31.5,60c-44.6,14.9-7.4,63.9-7.4,63.9c-55,22.3,1.5,60.9,1.5,60.9
		C49.3,217.4,82,223.4,82,223.4c11.9,9.5,24.2,12.4,34.8,12.4c15.8,0,27.6-6.4,27.6-6.4c11.3-13.2,27.5-15.6,37.7-15.6
		c5.9,0,9.8,0.8,9.8,0.8C168.1,176,221.6,173,221.6,173c28.5,5.3,45.3,6.4,54.1,6.4c5.9,0,8.3-0.5,8.3-0.5
		c44.6-41.6-17.8-83.2-17.8-83.2c-21.7-16.3-38.7-21.5-51.5-21.5c-22.1,0-31.7,15.5-31.7,15.5c-11.1,6.7-20.6,8.8-28.1,8.8
		c-12.5,0-19.4-5.8-19.4-5.8c-18.5-16.2-40.6-18-49.5-18c-2.5,0-4,0.1-4,0.1C52.3,65.9,31.5,60,31.5,60L31.5,60z"/>
</g>
<g class="st2">
	<path d="M139.2,130.3c2.8,2.6,6.3,6.3,7.9,8.8l-3,2.2c-0.4-0.7-0.9-1.4-1.6-2.3c-15.9,0.8-18.1,0.8-19.6,1.4
		c-0.2-0.7-0.8-2.5-1.2-3.4c0.8-0.2,1.5-0.8,2.5-1.7c1-0.9,4.3-4.6,6.4-8.2l3.6,1.5c-1.9,2.8-4.3,5.5-6.5,7.6l12.3-0.4
		c-1.2-1.3-2.4-2.6-3.5-3.7L139.2,130.3z M123.9,142.3h20.2v13.1h-3.8V154h-12.7v1.5h-3.7V142.3z M127.5,145.7v4.8h12.7v-4.8H127.5z
		"/>
	<path d="M176.4,132.7v15h-3.8v-1.5h-6.8v9.4H162v-9.4h-6.7v1.6h-3.6v-15.1H162v-5.2h3.8v5.2H176.4z M162,142.6v-6.4h-6.7v6.4H162z
		 M172.6,142.6v-6.4h-6.8v6.4H172.6z"/>
</g>
</svg>
