<?xml version="1.0" encoding="utf-8"?>
<svg version="1.1" xmlns="http://www.w3.org/2000/svg" xmlns:xlink="http://www.w3.org/1999/xlink" x="0px" y="0px"
	 viewBox="0 0 300 300" style="enable-background:new 0 0 300 300;" xml:space="preserve">
<style type="text/css">
	.st0{fill:#FFCCBC;}
	.st1{fill:#FFFFFF;}
	.st2{opacity:0.5;}
</style>
<g>
	<path class="st0" d="M147.3,291.3c-15.8-1.9-15.8-1.9-15.9-1.9c-0.1,0-0.1,0-15.8,1.7l-29.4-4.2l-8.1-4.1L70.9,267l-0.2-0.6
		c-0.2-0.7-0.7-1.2-1.4-1.5c-0.3-0.1-0.6-0.2-0.8-0.2c-0.4,0-0.8,0.1-1.2,0.3l-8.8,5.3l-1.3-8.6c0-0.2-0.1-0.5-0.2-0.7l-3.5-7
		c-0.1-0.2-0.3-0.4-0.4-0.6l-5.5-5.6l6.9-4.9c0.3-0.3,0.6-0.6,0.8-1l5.1-11.6c0.2-0.4,0.2-0.9,0.1-1.4l-2.2-9.9c-0.2-1-1-1.7-2-1.8
		l-12.2-1.7c-0.1,0-0.2,0-0.3,0c-0.8,0-1.5,0.4-1.9,1.1l-2.3,3.6c-0.1,0.2-0.2,0.4-0.3,0.6l-1.9,6.2l-2.5,3.8l-3.8-0.2l-1.5-2.6
		l0.9-12.7c0-0.3,0-0.6-0.1-0.9l-1.6-4.7c-0.2-0.6-0.7-1.1-1.3-1.4l-7.8-3.4c-0.3-0.1-0.6-0.2-0.9-0.2c-0.6,0-1.1,0.2-1.6,0.6
		l-4.4,4c-0.2,0.1-0.3,0.3-0.4,0.5l-3.1,4.8l-3.2,0.8L2,211.9l-1-5.7l1.1-5.8l1.8-3.5l4.6-2.4l6.7-0.9c0.1,0,0.1,0,0.2,0l6.1-1.9
		c0.7-0.2,1.3-0.8,1.5-1.5l2-5.8c0.3-0.8,0.1-1.7-0.5-2.3l-2.7-3c-0.3-0.3-0.7-0.6-1.2-0.7L6,174.7l11.2-0.1c0.7,0,1.4-0.4,1.9-0.9
		c0.4-0.6,0.6-1.3,0.4-2l-1.5-5c-0.1-0.4-0.4-0.8-0.7-1.1l-8.1-7l-4.5-5.1l0.9-5.5l3.8-2.1l4.9-1.6c0.6-0.2,1-0.6,1.3-1.1l2.5-4.9
		c0.2-0.5,0.3-1,0.2-1.6l-1.6-7.5c0-0.1,0-0.1-0.1-0.2l-2.4-5.6l1.5-4.8l2.5-6.6l4.1-4.7c0.5-0.5,0.7-1.3,0.5-2l-0.8-3.9l0.8-3.8
		L29,81.1l2.3-2.5l4.3-1.1c0.9-0.2,1.6-1,1.7-1.9c0.2-0.9-0.2-1.8-1-2.3l-5.6-3.7l1.5-3.9l7.9,3c0.2,0.1,0.3,0.1,0.5,0.1l17,2.5
		l13.7,3.5c0.2,0,0.4,0.1,0.6,0.1c0.3,0,0.6-0.1,0.9-0.2l12-5.3c0.5-0.2,0.9-0.6,1.1-1.1l4.5-8.9l10.5-6.5c0,0,0.1,0,0.1-0.1
		l12.8-10l0.1-0.1l9-9.3l11.4-8.4l14.4-6.5l28.9-5.4l15.6-0.9l13.1,4.3l6.9,4.2l3.6,7.4l3.3,9.5c0.1,0.3,0.3,0.6,0.5,0.9L239,57.4
		l1.7,13.4l-3.3,26.9c0,0.3,0,0.7,0.1,1l3,8.7c0.2,0.4,0.4,0.8,0.8,1.1l8.7,6.7c0.4,0.3,0.9,0.5,1.4,0.5l7.2,0.1
		c0.3,0,0.7-0.1,1-0.2l10-4.5l8.8-1.1l6.6,2c0.1,0,0.1,0,0.2,0l13.4,1.6l-3.3,9.6L275.5,152l-19.2,32.7L244,200.3L229.9,214
		l-12.3,10.2l-0.1,0.1l-11.9,12.5l-0.1,0.1l-10.2,13.6c0,0,0,0.1-0.1,0.1l-5.8,10.2v0.1L185,271l-11.3,8l-12.2,4.9
		c-0.2,0.1-0.3,0.2-0.5,0.3l-6.5,4.8L147.3,291.3z"/>
	<path class="st1" d="M193.1,13l12.8,4.2l6.6,4l3.5,7.1l3.2,9.5c0.2,0.5,0.4,0.9,0.8,1.3l18.2,18.6l1.7,12.9l-3.3,26.8
		c-0.1,0.5,0,1,0.2,1.5l3,8.7c0.2,0.6,0.6,1.1,1.1,1.5l8.6,6.7c0.6,0.4,1.3,0.7,2,0.7c7.2,0.1,7.2,0.1,7.2,0.1
		c0.5,0,0.9-0.1,1.4-0.3l9.9-4.4l8.4-1.1l6.4,1.9c0.1,0,0.2,0.1,0.4,0.1l12.2,1.4l-2.9,8.3l-19.8,28.7l-0.1,0.1L255.4,184
		l-12.1,15.6l-14,13.6L217,223.4c-0.1,0-0.1,0.1-0.2,0.2l-11.9,12.5c-0.1,0.1-0.1,0.1-0.2,0.2l-10.2,13.6c-0.1,0.1-0.1,0.1-0.1,0.2
		l-5.8,10.2c0,0.1-0.1,0.1-0.1,0.2l-4.3,9.8l-11,7.7l-12.1,4.8c-0.2,0.1-0.5,0.2-0.7,0.4l-6.4,4.7l-6.8,2.4
		c-15.6-1.9-15.6-1.9-15.8-1.9c-0.1,0-0.2,0-15.8,1.7l-29-4.1l-7.6-3.9l-7.1-15.4l-0.2-0.6c-0.3-1-1-1.8-2-2.1
		c-0.4-0.1-0.8-0.2-1.2-0.2c-0.6,0-1.2,0.2-1.7,0.5l-7.6,4.5l-1.1-7.1c-0.1-0.3-0.2-0.7-0.3-1l-3.5-7c-0.2-0.3-0.4-0.6-0.6-0.8
		l-4.7-4.7l5.9-4.2c0.5-0.4,0.9-0.8,1.1-1.4l5.1-11.6c0.3-0.6,0.3-1.3,0.2-2l-2.1-10.1c-0.3-1.4-1.4-2.4-2.8-2.6l-12.2-1.7
		c-0.1,0-0.3,0-0.4,0c-1.1,0-2.2,0.6-2.8,1.5l-2.3,3.6c-0.2,0.3-0.3,0.5-0.4,0.8l-1.9,6l-2.1,3.2l-2.7-0.1l-1.1-1.8l0.9-12.4
		c0-0.4,0-0.9-0.2-1.3l-1.6-4.7c-0.3-0.9-1-1.6-1.8-2L20,204c-0.4-0.2-0.9-0.3-1.3-0.3c-0.8,0-1.6,0.3-2.2,0.9l-4.4,4
		c-0.2,0.2-0.4,0.4-0.6,0.7l-2.9,4.5L6.5,214l-3.4-2.9l-1-4.9l1.1-5.4l1.6-3.1l4.2-2.2l6.6-0.9c0.1,0,0.2,0,0.3-0.1l6.2-2
		c1-0.3,1.8-1.1,2.1-2.1l2-5.8c0.4-1.2,0.1-2.4-0.7-3.3l-2.7-3c-0.4-0.5-1-0.8-1.7-1l-7.1-1.8h3.4c1,0,2-0.5,2.6-1.3
		s0.8-1.9,0.5-2.9l-1.5-5c-0.2-0.6-0.5-1.2-1-1.6l-8.1-7L5.7,153l0.8-4.6l3.3-1.8l4.8-1.6c0.8-0.3,1.5-0.8,1.9-1.6l2.5-4.9
		c0.4-0.7,0.5-1.5,0.3-2.2l-1.6-7.5c0-0.1-0.1-0.3-0.1-0.4l-2.2-5.3l1.4-4.4l2.4-6.5l4-4.6c0.7-0.8,1-1.9,0.7-2.9l-0.8-3.7l0.7-3.5
		L30,81.3l1.9-2.1l4-1c1.3-0.3,2.2-1.4,2.5-2.7c0.2-1.3-0.3-2.6-1.4-3.3l-5-3.3l0.9-2.2l7,2.6c0.2,0.1,0.4,0.1,0.7,0.2L57.4,72
		L71,75.5c0.3,0.1,0.6,0.1,0.8,0.1c0.5,0,0.9-0.1,1.4-0.3l12-5.3c0.7-0.3,1.3-0.9,1.6-1.5l4.4-8.7l10.2-6.3c0.1,0,0.1-0.1,0.2-0.1
		l12.8-10c0.1-0.1,0.1-0.1,0.2-0.2l9-9.2l11.2-8.3l14.2-6.4l28.7-5.4L193.1,13 M193.4,11l-15.8,0.9l-29,5.4L134,23.9l-11.5,8.5
		l-9.1,9.3l-12.8,10l-10.7,6.6l-4.6,9.2c-0.1,0.3-0.4,0.5-0.6,0.6l-12,5.3c-0.2,0.1-0.4,0.1-0.5,0.1s-0.2,0-0.3,0L57.8,70l-17-2.5
		c-0.1,0-0.2,0-0.3-0.1l-8.8-3.3l-2.2,5.6l6.3,4.2c0.4,0.3,0.7,0.8,0.6,1.3c-0.1,0.5-0.5,0.9-1,1.1l-4.5,1.2l-2.6,2.8L21.9,97
		l-0.8,4l0.9,4.1c0.1,0.4,0,0.8-0.3,1.1l-4.2,4.9l-2.6,6.8l-1.6,5.2l2.5,6l1.6,7.5c0.1,0.3,0,0.6-0.1,0.9l-2.5,4.9
		c-0.2,0.3-0.4,0.5-0.8,0.6l-5,1.6L4.7,147l-1.1,6.4l4.8,5.5l8.2,7.1c0.2,0.2,0.3,0.4,0.4,0.6l1.5,5c0.1,0.4,0,0.8-0.2,1.2
		c-0.2,0.3-0.6,0.5-1.1,0.5l-13.7,0.1v1.4l16.9,4.2c0.3,0.1,0.5,0.2,0.7,0.4l2.7,3c0.3,0.4,0.4,0.9,0.3,1.3l-2,5.8
		c-0.1,0.4-0.5,0.7-0.9,0.8l-6.1,1.9l-6.9,0.9l-5,2.6l-2,3.9L0,206.2l1.2,5.9l4.7,4.1l4.1-1.1l3.3-5.1c0.1-0.1,0.1-0.2,0.2-0.3
		l4.4-3.9c0.2-0.2,0.6-0.3,0.9-0.3c0.2,0,0.4,0,0.5,0.1l7.8,3.4c0.3,0.2,0.6,0.4,0.7,0.8l1.6,4.7c0.1,0.2,0.1,0.3,0.1,0.5l-0.9,13
		l1.9,3.3l4.9,0.2l2.9-4.4l2-6.3c0-0.1,0.1-0.2,0.2-0.3l2.3-3.6c0.2-0.4,0.7-0.6,1.1-0.6c0.1,0,0.1,0,0.2,0l12.2,1.7
		c0.6,0.1,1,0.5,1.1,1.1l2.1,10.1c0.1,0.3,0,0.5-0.1,0.8l-5.1,11.6c-0.1,0.2-0.3,0.4-0.4,0.6l-7.8,5.6l6.4,6.4
		c0.1,0.1,0.2,0.2,0.2,0.3l3.5,7c0.1,0.1,0.1,0.3,0.1,0.4l1.5,10.1l10.1-6.1c0.2-0.1,0.4-0.2,0.7-0.2c0.2,0,0.3,0,0.5,0.1
		c0.4,0.1,0.7,0.5,0.8,0.9l0.2,0.7l7.4,16.2l8.6,4.3l29.6,4.2l15.8-1.7c0.1,0,16,1.9,16,1.9l7.5-2.7l6.6-4.9
		c0.1-0.1,0.2-0.1,0.3-0.2l12.3-4.9l11.7-8.2l4.5-10.3l5.8-10.2l10.2-13.6l11.9-12.5l12.3-10.2l14.2-13.8l12.3-15.8l19.2-32.7
		l19.9-28.9l3.8-10.9l-14.6-1.7l-6.8-2.1l-9.1,1.2l-10.1,4.6c-0.2,0.1-0.4,0.1-0.5,0.1l-7.2-0.1c-0.3,0-0.6-0.1-0.8-0.3l-8.7-6.7
		c-0.2-0.2-0.4-0.4-0.4-0.6l-3-8.7c-0.1-0.2-0.1-0.4-0.1-0.6l3.3-27.1l-1.8-13.8l-18.7-19.1c-0.1-0.1-0.2-0.3-0.3-0.5l-3.3-9.6
		l-3.8-7.7l-7.3-4.4L193.4,11L193.4,11z"/>
</g>
<g class="st2">
	<path d="M140.7,135.4c2.8,2.6,6.3,6.3,7.9,8.8l-3,2.2c-0.4-0.7-0.9-1.4-1.6-2.3c-15.9,0.8-18.1,0.8-19.6,1.4
		c-0.2-0.7-0.8-2.5-1.2-3.4c0.8-0.2,1.5-0.8,2.5-1.7c1-0.9,4.3-4.6,6.4-8.2l3.6,1.5c-1.9,2.8-4.3,5.5-6.5,7.6l12.3-0.4
		c-1.2-1.3-2.4-2.6-3.5-3.7L140.7,135.4z M125.3,147.4h20.2v13.1h-3.8V159H129v1.5h-3.7V147.4z M129,150.8v4.8h12.7v-4.8H129z"/>
	<path d="M167,138.4c-0.1,0.8-0.3,1.5-0.4,2.3h11V157c0,1.7-0.4,2.5-1.6,3.1c-1.2,0.5-3,0.5-5.4,0.5c-0.2-0.9-0.7-2.2-1.1-3
		c1.4,0.1,3.3,0.1,3.8,0.1c0.5,0,0.7-0.1,0.7-0.6v-13h-5.7l3,0.6c-0.4,1.1-0.8,2.2-1.3,3.1h2.2v2.8H167v2h5.7v2.9H167v4.4h-3.4v-4.4
		h-5.5v-2.9h5.5v-2h-4.9v-2.8h2.3c-0.3-0.9-0.7-2.1-1.2-3l2.8-0.7c0.5,1,1.1,2.4,1.3,3.3l-1.6,0.5h4.4c0.5-1.2,0.9-2.6,1.1-3.8
		h-11.1v16.6h-3.6v-19.9h9.7c0.1-0.7,0.2-1.4,0.3-2.3h-11.2v-3.3h11.5c0.1-0.9,0.1-1.7,0.2-2.5l4,0.4c-0.1,0.7-0.2,1.4-0.3,2.2h11.2
		v3.3H167z"/>
</g>
</svg>
