<?xml version="1.0" encoding="utf-8"?>
<svg version="1.1" xmlns="http://www.w3.org/2000/svg" xmlns:xlink="http://www.w3.org/1999/xlink" x="0px" y="0px"
	 viewBox="0 0 300 300" style="enable-background:new 0 0 300 300;" xml:space="preserve">
<style type="text/css">
	.st0{fill:#F8BBD0;}
	.st1{fill:#FFFFFF;}
	.st2{opacity:0.5;enable-background:new;}
</style>
<g>
	<path class="st0" d="M183.1,296.6l-28.4-17c-0.3-0.2-0.7-0.3-1.1-0.3c-0.2,0-0.3,0-0.5,0.1l-5.9,1.4c-0.7,0.2-1.2,0.6-1.5,1.3
		l-3.4,8.8l-6.7,6.2l-9-0.1l-12.5-4.8H114l-23.4-5.9l-9.7-4.7l-12.8-10.3c-0.4-0.3-0.8-0.5-1.3-0.5h-7.6c-0.3,0-0.6,0.1-0.9,0.2
		l-7.2,3.4l-5,0.8l-5.1-3.5l-7-4c-0.2-0.1-0.4-0.2-0.6-0.2l-6.6-1.4l-1.7-4.2l1-8.1c0.1-1-0.5-2-1.5-2.3l-3.4-0.9l5.7-13.7
		l21.5-21.8c0.1-0.1,0.2-0.2,0.3-0.3l5.8-9c0.3-0.4,0.4-0.9,0.3-1.4L54,198l2-7l4.1-11.4l4.7-1.9l4.4,0.9c0.1,0,0.3,0,0.4,0
		c0.2,0,0.5,0,0.7-0.1l5.4-2c0.4-0.2,0.8-0.5,1.1-0.9l3.5-6c0.3-0.5,0.4-1,0.2-1.6L76,150l6.9-5l13.4-3.7l7.8-2.9
		c0.2-0.1,0.4-0.2,0.6-0.4l5.9-5.1l7.4-5.2l10.1-4.9l0.1-0.1l6.2-4.4c0.7-0.5,1-1.3,0.8-2.1l-0.7-3.2v-0.1l-1.5-4.8l-0.2-5.7
		l2.6-6.8l6.9-5.8l5.6-3.4l20.1-8.2c0,0,0.1,0,0.1-0.1L189,65.6l9.4-2.9c0.2-0.1,0.4-0.2,0.6-0.3l7.8-5.6c0.2-0.2,0.4-0.4,0.6-0.6
		l4.8-7.8l4.7-5.9l5.3-2.8l5.3-1.8c0.2-0.1,0.3-0.1,0.4-0.2l7.1-4.5c0.4-0.2,0.6-0.5,0.8-0.9l2.5-5.9c0.3-0.7,0.2-1.4-0.2-2
		l-3.2-4.5l1.2-2.6l16.3-3.3c0.3-0.1,0.5-0.2,0.7-0.3l5.7-3.8l12.6-6.7l8.2-1.7l3.3,1.9l-16.1,8c-0.1,0.1-0.3,0.2-0.4,0.3l-8.6,7.5
		l-0.1,0.1l-29.2,35.6l-0.1,0.1l-4.7,7.6c-0.1,0.1-0.1,0.3-0.2,0.4l-3.6,10.5v0.1l-2.4,12.1v0.1l-0.9,12v0.1l0.4,11.7
		c0,0.1,0,0.1,0,0.2l5.1,24l-0.3,5.6l-2.1,5.9c-0.1,0.2-0.1,0.5-0.1,0.7l0.3,12.6c0,0.3,0.1,0.7,0.3,0.9l5.3,9.7
		c0.2,0.3,0.4,0.6,0.7,0.8l10.1,6.3c0.2,0.1,0.4,0.2,0.7,0.3l3.8,0.7c-0.4,0-1,0.1-1.5,0.2c-0.1,0-0.3,0-0.4,0.1l-4,1.3
		c-0.2,0.1-0.4,0.2-0.6,0.3l-2.9,2.1c-0.8,0.6-1.1,1.7-0.6,2.7l4,7.5l2,9.5l-1.1,7.4l-8.4,4.8c-0.5,0.3-0.9,0.8-1,1.4l-0.7,3.8
		c-0.1,0.3,0,0.6,0,0.9l1.2,4.7c0.1,0.2,0.1,0.4,0.3,0.6l2.4,3.9l0.6,2.9l-2.9,2.7l-9.4,5.5c-0.2,0.1-0.4,0.3-0.5,0.4l-10.9,12.6
		c-0.3,0.3-0.5,0.8-0.5,1.2l-0.4,4.9v0.1l0.6,10.5l-1.6,3.7l-1.9,3.3c-0.1,0.2-0.2,0.3-0.2,0.5l-1.3,5c0,0.1,0,0.1,0,0.2l-0.8,9.8
		l-0.7,2l-1.4,1.8c-0.1,0.1-0.2,0.3-0.3,0.5l-0.8,2.2c-0.1,0.4-0.2,0.8-0.1,1.2L183.1,296.6z"/>
	<path class="st1" d="M280,2.1l1.3,0.8L266.8,10c-0.2,0.1-0.4,0.3-0.7,0.4l-8.6,7.5c-0.1,0.1-0.2,0.2-0.2,0.2l-29.2,35.6
		c-0.1,0.1-0.1,0.1-0.2,0.2l-4.7,7.6c-0.1,0.2-0.2,0.4-0.3,0.6l-3.6,10.5c0,0.1-0.1,0.2-0.1,0.3L216.9,85c0,0.1,0,0.2,0,0.2l-0.9,12
		c0,0.1,0,0.1,0,0.2l0.4,11.7c0,0.1,0,0.2,0,0.3l5.1,23.9l-0.3,5.3l-2,5.7c-0.1,0.3-0.2,0.7-0.2,1.1l0.3,12.6c0,0.5,0.1,1,0.4,1.4
		l5.3,9.7c0.3,0.5,0.6,0.9,1.1,1.1l10.1,6.3c0.1,0.1,0.2,0.1,0.4,0.2l-1.7,0.6c-0.3,0.1-0.5,0.2-0.8,0.4l-2.9,2.1
		c-1.2,0.9-1.6,2.6-0.9,3.9l3.9,7.4l1.9,9.1l-1,6.8l-8,4.5c-0.8,0.4-1.3,1.2-1.5,2.1l-0.7,3.8c-0.1,0.4-0.1,0.9,0,1.3l1.2,4.6
		c0.1,0.3,0.2,0.6,0.4,0.9l2.3,3.8l0.5,2.1l-2.4,2.3l-9.4,5.4c-0.3,0.2-0.6,0.4-0.8,0.6L205.8,251c-0.4,0.5-0.7,1.1-0.8,1.8
		l-0.4,4.9c0,0.1,0,0.2,0,0.3l0.6,10.3l-1.5,3.4L202,275c-0.2,0.3-0.3,0.5-0.3,0.8l-1.3,5c0,0.1,0,0.2-0.1,0.3l-0.8,9.7l-0.6,1.7
		l-1.3,1.7c-0.2,0.2-0.3,0.5-0.4,0.8l-0.8,2.1c0,0.1-0.1,0.2-0.1,0.4l-13-2L155,278.6c-0.5-0.3-1-0.4-1.6-0.4c-0.2,0-0.5,0-0.7,0.1
		l-5.9,1.4c-1,0.2-1.8,0.9-2.2,1.9l-3.4,8.6l-6.3,5.8h-8.4l-12.3-4.7c-0.1,0-0.1-0.1-0.2-0.1l-23-5.9l-9.5-4.6l-12.7-10.2
		c-0.5-0.4-1.2-0.7-1.9-0.7h-7.6c-0.5,0-0.9,0.1-1.3,0.3l-7,3.3l-4.4,0.7l-4.8-3.3l-0.1-0.1l-6.9-4c-0.3-0.2-0.6-0.3-0.9-0.3l-6-1.3
		l-1.4-3.5l1-7.9c0.2-1.5-0.8-2.9-2.2-3.3l-2.3-0.6l5.2-12.5l21.3-21.6c0.2-0.2,0.3-0.3,0.4-0.5l5.8-9c0.4-0.6,0.6-1.3,0.5-2.1
		l-0.8-6.2l1.9-6.7l4-11l4-1.6l4.1,0.8c0.2,0,0.4,0.1,0.6,0.1c0.4,0,0.7-0.1,1.1-0.2l5.3-2c0.7-0.2,1.2-0.7,1.6-1.3l3.5-6
		c0.4-0.7,0.5-1.5,0.3-2.3l-4.4-17.3l6.2-4.5l13.2-3.7c0.1,0,0.1,0,0.2-0.1l7.7-2.9c0.3-0.1,0.6-0.3,0.9-0.5l5.8-5l7.4-5.2l10.1-4.9
		c0.1,0,0.2-0.1,0.3-0.2l6.2-4.4c1-0.7,1.5-1.9,1.2-3.1l-0.7-3.2c0-0.1,0-0.1-0.1-0.2l-1.5-4.7l-0.2-5.4l2.5-6.4l6.6-5.6l5.5-3.3
		l20-8.1c0.1,0,0.2-0.1,0.3-0.1l20.8-12.4l9.3-2.9c0.3-0.1,0.6-0.2,0.9-0.4l7.8-5.6c0.3-0.2,0.6-0.6,0.8-0.9l4.7-7.7l4.5-5.7l5-2.7
		l5.2-1.8c0.2-0.1,0.4-0.2,0.6-0.3l7.1-4.5c0.5-0.3,0.9-0.8,1.2-1.4l2.5-5.9c0.4-1,0.3-2.1-0.3-3l-2.9-4.1L237,18l15.9-3.2
		c0.4-0.1,0.7-0.2,1.1-0.4l5.6-3.7L272.1,4L280,2.1 M280.3,0l-8.7,1.8l-12.8,6.9l-5.7,3.8c-0.1,0.1-0.2,0.1-0.4,0.2l-16.8,3.4
		l-1.7,3.6l3.5,5c0.2,0.3,0.3,0.7,0.1,1l-2.5,5.9c-0.1,0.2-0.2,0.4-0.4,0.5l-7.1,4.5c-0.1,0-0.1,0.1-0.2,0.1l-5.3,1.9l-5.6,2.9
		l-4.9,6.1l-4.8,7.8c-0.1,0.1-0.2,0.2-0.3,0.3l-7.8,5.6c-0.1,0.1-0.2,0.1-0.3,0.2l-9.5,2.9l-21,12.6L148,85.2l-5.8,3.4l-7.2,6
		l-2.8,7.2l0.2,6.1l1.6,4.9l0.7,3.2c0.1,0.4-0.1,0.9-0.4,1.1l-6.2,4.4l-10.2,4.9l-7.6,5.3l-5.9,5.1c-0.1,0.1-0.2,0.1-0.3,0.2
		l-7.7,2.9l-13.6,3.8l-7.6,5.5l4.7,18.6c0.1,0.3,0,0.6-0.1,0.8l-3.5,6c-0.1,0.2-0.3,0.4-0.6,0.5l-5.3,2c-0.1,0-0.2,0.1-0.4,0.1
		c-0.1,0-0.1,0-0.2,0l-4.7-0.9l-5.3,2.2l-4.3,11.9l-2,7.2l0.9,6.6c0,0.3,0,0.5-0.2,0.7l-5.8,9.1c0,0.1-0.1,0.1-0.1,0.2L26.2,236
		L20,251l4.5,1.2c0.5,0.1,0.9,0.6,0.8,1.2l-1,8.4l2,5l7.1,1.5c0.1,0,0.2,0.1,0.3,0.1l6.9,4l5.4,3.7l5.5-0.9l7.3-3.5
		c0.1-0.1,0.3-0.1,0.5-0.1h7.6c0.2,0,0.5,0.1,0.7,0.2l12.9,10.4l9.9,4.8l23.5,6l12.7,4.8l9.5,0.1l7.2-6.6l3.5-9
		c0.1-0.3,0.4-0.6,0.8-0.7l5.9-1.4c0.1,0,0.2,0,0.2,0c0.2,0,0.4,0.1,0.6,0.2l28.6,17.1l16.5,2.5l-0.7-1.2c-0.2-0.3-0.2-0.6-0.1-1
		l0.8-2.1c0-0.1,0.1-0.2,0.2-0.3l1.5-1.9l0.8-2.3l0.8-9.9l1.3-5c0-0.1,0.1-0.2,0.1-0.3l1.9-3.4l1.7-3.9L207,258l0.4-4.9
		c0-0.2,0.1-0.5,0.3-0.6l11-12.6c0.1-0.1,0.2-0.2,0.3-0.2l9.5-5.6l3.4-3.2l-0.8-3.6l-2.5-4c-0.1-0.1-0.1-0.2-0.1-0.3l-1.2-4.6
		c0-0.2,0-0.3,0-0.5l0.7-3.8c0.1-0.3,0.3-0.6,0.5-0.7l8.8-5l1.2-8.1l-2-9.8l-4-7.7c-0.3-0.5-0.1-1.1,0.3-1.4l2.9-2.1
		c0.1-0.1,0.2-0.1,0.3-0.1l4-1.3c0.1,0,0.1,0,0.2,0l4.9-0.5l4,0.4v-0.7l-11-2c-0.1,0-0.3-0.1-0.4-0.1l-10.1-6.3
		c-0.2-0.1-0.3-0.2-0.4-0.4l-5.3-9.7c-0.1-0.2-0.1-0.3-0.1-0.5l-0.3-12.6c0-0.1,0-0.3,0.1-0.4l2.1-6l0.3-5.9l-5.1-24.1l-0.4-11.7
		l0.9-12l2.4-12.1l3.6-10.5c0-0.1,0.1-0.1,0.1-0.2l4.7-7.6l29.2-35.6l8.6-7.5c0.1-0.1,0.1-0.1,0.2-0.2L285.7,3l-0.4-0.5L280.3,0
		L280.3,0z"/>
</g>
<g class="st2">
	<path d="M151.4,185.7v3h-24.9v-3h5.2v-14.5h14.3v14.5H151.4z M130.3,172.8H127v-6.6h10.5c-0.3-0.8-0.6-1.7-1-2.4l3.2-0.8
		c0.6,1,1.1,2.2,1.3,3.2h9.7v6.6h-3.4v-3.6h-17.2V172.8z M134.9,174.1v2h7.7v-2H134.9z M142.7,178.7h-7.7v2h7.7V178.7z M134.9,185.7
		h7.7v-2.2h-7.7V185.7z"/>
	<path d="M159.6,167.3h-5.1v-2.7h5.1v-1.3h3.3v1.3h3.6v2.7h-3.6v1.2h-3.3V167.3z M178.4,186.2c0,1.4-0.3,2.1-1.1,2.5
		c-0.8,0.5-2,0.5-3.6,0.5c-0.1-0.7-0.5-1.7-0.8-2.4l-1.1,1.5c-0.6-0.6-2.3-1.9-3.5-2.8v3.4h-2.6v-3.2c-1.3,1.1-2.9,2.2-4.4,2.8
		c-0.4-0.6-1.2-1.5-1.7-1.9c1.5-0.4,3.2-1.1,4.5-2h-3.1V179h4.8v-0.7h-5.5v-1.7h5.5v-0.9h-6.8v13.7h-3.1v-20.5H166v6.6h1.8v-6.6
		h10.6V186.2z M158.8,170.8v0.8h4.2v-0.8H158.8z M163,173.9v-0.8h-4.2v0.8H163z M162.9,182.9h1.4c-0.2-0.4-0.6-1.1-1-1.6l1.2-0.4
		c0.4,0.4,0.8,1.1,1,1.5l-1.1,0.5h1.5v-2.2h-3V182.9z M179.4,164.5v2.7h-4.8v1.2h-3.3v-1.2h-3.8v-2.7h3.8v-1.3h3.3v1.3H179.4z
		 M170.5,181.3c-0.4,0.6-0.8,1.1-1.1,1.6h1.5v-2.2h-3v2.2h1.3l-0.9-0.4c0.3-0.5,0.7-1.3,1-1.7L170.5,181.3z M174.8,186.6
		c0.3,0,0.4-0.1,0.4-0.4v-10.3h-7v0.8h5.7v1.7h-5.7v0.7h4.9v5.5h-3.4c1.3,0.7,2.9,1.7,3.4,2C173.8,186.6,174.5,186.6,174.8,186.6z
		 M170.8,170.8v0.8h4.4v-0.8H170.8z M170.8,173.9h4.4v-0.8h-4.4V173.9z"/>
</g>
</svg>
